<mxfile host="app.diagrams.net" modified="2023-05-10T04:30:01.973Z" agent="Mozilla/5.0 (Windows NT 10.0; Win64; x64) AppleWebKit/537.36 (KHTML, like Gecko) Chrome/93.0.4577.63 Safari/537.36" version="21.2.9" etag="9f-92hrie53eusjK4FA2" type="github">
  <diagram name="第 1 页" id="5eLNra7Sz6NAYM1fffOi">
    <mxGraphModel>
      <root>
        <mxCell id="0" />
        <mxCell id="1" parent="0" />
      </root>
    </mxGraphModel>
  </diagram>
</mxfile>
